Coordinates
version=1
nRows=24
nColumns=22
inDegrees=yes

Units are S.I. units (second, meters, Newtons, ...)
If the header above contains a line with 'inDegrees', this indicates whether rotational values are in degrees (yes) or radians (no).

endheader
time	pelvis_tilt	pelvis_list	pelvis_rotation	pelvis_tx	pelvis_ty	pelvis_tz	hip_flexion_r	hip_adduction_r	hip_rotation_r	knee_angle_r	ankle_angle_r	subtalar_angle_r	hip_flexion_l	hip_adduction_l	hip_rotation_l	knee_angle_l	ankle_angle_l	subtalar_angle_l	lumbar_extension	lumbar_bending	lumbar_rotation
      3.54000000	     -8.40084642	     -1.35451947	     -2.83998545	     -0.63713487	      0.92919176	     -0.17454796	      3.13358430	      3.46429646	     -0.52171334	    -21.11291147	     19.93776491	     -2.22288369	     33.07147118	     -2.78853049	     -0.76710711	    -22.52124573	      2.76011784	     -1.60889196	     -7.72290363	     -0.84518690	      5.63513777
      3.55000000	     -8.48887540	     -1.31170165	     -2.71971218	     -0.64481206	      0.92891475	     -0.17299533	      3.54365148	      3.58950289	     -0.87204901	    -20.80883352	     20.24940888	     -2.68059324	     33.25944564	     -2.81504969	     -0.74501367	    -21.90977327	      3.38454694	     -0.89680967	     -7.75379274	     -0.84682323	      5.54386822
      3.56000000	     -8.56528099	     -1.27870338	     -2.59074440	     -0.65233785	      0.92874816	     -0.17149011	      3.97594022	      3.71917360	     -1.18543927	    -20.57787551	     20.49321284	     -3.11994385	     33.41954000	     -2.85956261	     -0.77094548	    -21.33248680	      3.99480499	     -0.15299032	     -7.79104195	     -0.84620535	      5.44651343
      3.57000000	     -8.62798582	     -1.25299295	     -2.44609133	     -0.65968702	      0.92869160	     -0.17006502	      4.42314970	      3.84669800	     -1.46216103	    -20.41596315	     20.67231473	     -3.52535630	     33.55531558	     -2.91258638	     -0.83022528	    -20.81575077	      4.54955224	      0.58778595	     -7.83383101	     -0.84149111	      5.32660474
      3.58000000	     -8.67484006	     -1.23167432	     -2.28204360	     -0.66682769	      0.92875226	     -0.16873119	      4.87132655	      3.96321312	     -1.73479797	    -20.30534409	     20.81880183	     -3.86790059	     33.67688758	     -2.96757750	     -0.91678419	    -20.40137155	      4.99764333	      1.26936770	     -7.88086199	     -0.83828698	      5.18453390
      3.59000000	     -8.69741387	     -1.22740160	     -2.12151842	     -0.67377230	      0.92895760	     -0.16745514	      5.31240056	      4.09110970	     -1.92381150	    -20.25045565	     20.86127815	     -4.20735212	     33.77773438	     -3.04635594	     -1.01407087	    -20.11777294	      5.39467270	      1.95241088	     -7.94497353	     -0.82290843	      5.03771801
      3.60000000	     -8.69297648	     -1.22823898	     -1.94606878	     -0.68049201	      0.92931314	     -0.16629247	      5.73385352	      4.20797536	     -2.09230411	    -20.23506632	     20.85264355	     -4.49788127	     33.86612248	     -3.12232492	     -1.10405618	    -20.00292342	      5.68093609	      2.53037293	     -8.02538101	     -0.80401774	      4.87379128
      3.61000000	     -8.66571636	     -1.23833902	     -1.76576549	     -0.68694242	      0.92982052	     -0.16519492	      6.12421853	      4.31898793	     -2.26974253	    -20.23225350	     20.78552195	     -4.73656307	     33.93824206	     -3.20842219	     -1.19200818	    -20.06613737	      5.90390444	      2.98521613	     -8.10887918	     -0.78649622	      4.70462686
      3.62000000	     -8.60395635	     -1.25521179	     -1.58178047	     -0.69319238	      0.93049726	     -0.16418223	      6.48193083	      4.42787375	     -2.39479683	    -20.25849286	     20.65399737	     -4.96213624	     34.00262994	     -3.29836179	     -1.25664406	    -20.35233591	      6.04932981	      3.37787845	     -8.22134019	     -0.76604704	      4.52731770
      3.63000000	     -8.51497671	     -1.26785459	     -1.39169831	     -0.69919158	      0.93133106	     -0.16325185	      6.79628078	      4.51903893	     -2.52048976	    -20.28251037	     20.47706296	     -5.14924117	     34.04770551	     -3.37779727	     -1.28491535	    -20.84400242	      6.15841124	      3.64552362	     -8.34424172	     -0.75820946	      4.34960999
      3.64000000	     -8.39909067	     -1.27948471	     -1.20371115	     -0.70494460	      0.93231374	     -0.16237578	      7.06456131	      4.59955286	     -2.64540006	    -20.29912977	     20.25287195	     -5.29423914	     34.06812705	     -3.45543121	     -1.28155258	    -21.53716681	      6.24819290	      3.80499103	     -8.47623684	     -0.76198178	      4.17043700
      3.65000000	     -8.26642934	     -1.28739026	     -1.02069512	     -0.71048385	      0.93341334	     -0.16155481	      7.29297102	      4.66896744	     -2.76223266	    -20.29608055	     19.99068656	     -5.42997236	     34.06905663	     -3.52727955	     -1.23739912	    -22.41797077	      6.33550767	      3.90443438	     -8.60921235	     -0.77610063	      3.99366116
      3.66000000	     -8.12919157	     -1.28487987	     -0.84446208	     -0.71579795	      0.93458972	     -0.16076846	      7.48645782	      4.72361089	     -2.87658709	    -20.26167934	     19.70292545	     -5.62128876	     34.05564412	     -3.59100127	     -1.17108002	    -23.46957898	      6.41681028	      3.98511987	     -8.72535568	     -0.81244871	      3.82371502
      3.67000000	     -7.95786256	     -1.28617644	     -0.69138836	     -0.72089886	      0.93586624	     -0.15998467	      7.61434344	      4.78161438	     -2.97050697	    -20.19843091	     19.37952173	     -5.69921031	     33.97733848	     -3.66404125	     -1.06699825	    -24.65327833	      6.54257708	      3.95322437	     -8.86274497	     -0.85502778	      3.68320367
      3.68000000	     -7.79199932	     -1.28515649	     -0.55312256	     -0.72580711	      0.93714927	     -0.15922260	      7.71180076	      4.83638689	     -3.05711245	    -20.09050200	     19.04601573	     -5.81406728	     33.88067458	     -3.73656690	     -0.93205094	    -25.95791285	      6.67172604	      3.91868654	     -8.97394680	     -0.90498780	      3.55286655
      3.69000000	     -7.62353212	     -1.27705473	     -0.45373964	     -0.73051223	      0.93842759	     -0.15844784	      7.77021072	      4.88294810	     -3.13779458	    -19.93974087	     18.71649227	     -5.91246187	     33.74388776	     -3.82196937	     -0.81773880	    -27.35191219	      6.82120987	      3.86355936	     -9.06752070	     -0.97099530	      3.47648777
      3.70000000	     -7.45895201	     -1.28031398	     -0.37591076	     -0.73506797	      0.93965896	     -0.15764593	      7.80247331	      4.95066316	     -3.17552139	    -19.75432559	     18.38141770	     -6.04493620	     33.57498273	     -3.92223026	     -0.66249342	    -28.81072684	      6.99138947	      3.80462158	     -9.14536907	     -1.03347528	      3.40868461
      3.71000000	     -7.29933748	     -1.28994519	     -0.33450712	     -0.73946241	      0.94082083	     -0.15683203	      7.81181008	      5.02833140	     -3.18068400	    -19.53950750	     18.05333362	     -6.21043757	     33.37024539	     -4.04195499	     -0.50542413	    -30.31380658	      7.18056813	      3.74223596	     -9.20344567	     -1.09189605	      3.37275542
      3.72000000	     -7.14529013	     -1.30687071	     -0.32262266	     -0.74371687	      0.94189657	     -0.15602256	      7.80483936	      5.12041983	     -3.13128676	    -19.30474554	     17.71513733	     -6.50808113	     33.12965982	     -4.17462557	     -0.33759335	    -31.84000825	      7.37918648	      3.69300303	     -9.24635943	     -1.13877791	      3.33048451
      3.73000000	     -7.00164096	     -1.33366650	     -0.36825616	     -0.74778727	      0.94285606	     -0.15516722	      7.78960593	      5.21997902	     -3.09325566	    -19.05692755	     17.44687433	     -6.65494973	     32.85590986	     -4.35057353	     -0.23032634	    -33.37997463	      7.60212650	      3.60697667	     -9.25899439	     -1.18445095	      3.39435158
      3.74000000	     -6.86000293	     -1.37049427	     -0.42763796	     -0.75172189	      0.94372061	     -0.15434195	      7.75646795	      5.33627293	     -3.00393664	    -18.79293697	     17.13577474	     -7.12086069	     32.54400372	     -4.53416636	     -0.11062435	    -34.90900347	      7.80966413	      3.55349960	     -9.26367215	     -1.21113004	      3.41766281
      3.75000000	     -6.73612192	     -1.43018521	     -0.53584088	     -0.75551128	      0.94444373	     -0.15352086	      7.74498594	      5.47272313	     -2.88335545	    -18.55703571	     16.91391877	     -7.20118406	     32.20801625	     -4.75646865	     -0.01338413	    -36.42096817	      8.05948063	      3.44055309	     -9.23709101	     -1.20963639	      3.50904468
      3.76000000	     -6.61687087	     -1.50886767	     -0.66158553	     -0.75915456	      0.94506942	     -0.15273610	      7.72676814	      5.62794846	     -2.74055285	    -18.32099590	     16.67900962	     -7.35513297	     31.83497109	     -5.00058973	      0.07012457	    -37.89139379	      8.29583460	      3.33191643	     -9.19839853	     -1.17944418	      3.58995083
      3.77000000	     -6.49680876	     -1.58984595	     -0.80492946	     -0.76264250	      0.94561478	     -0.15200003	      7.70303588	      5.78446325	     -2.58192864	    -18.09725748	     16.42668556	     -7.79233314	     31.41350725	     -5.25189625	      0.11563594	    -39.29814668	      8.50506754	      3.22473940	     -9.15246388	     -1.13870276	      3.67316220
